/* XPM */
static char * perso_xpm[] = {
"15 15 2 1",
" 	c None",
".	c #FF0000",
"               ",
"               ",
"       .       ",
"       .       ",
"      ...      ",
"      ...      ",
"     .....     ",
"     .....     ",
"     .....     ",
"      ...      ",
"               ",
"               ",
"               ",
"               ",
"               "};
