/* XPM */
static char * perso2_xpm[] = {
"30 30 2 1",
" 	c None",
".	c #FF0000",
"                              ",
"                              ",
"                              ",
"                              ",
"                              ",
"                              ",
"              ..              ",
"              ..              ",
"              ..              ",
"            ......            ",
"            ......            ",
"            ......            ",
"          ..........          ",
"          ..........          ",
"          ..........          ",
"          ..........          ",
"          ..........          ",
"          ..........          ",
"            ......            ",
"            ......            ",
"                              ",
"                              ",
"                              ",
"                              ",
"                              ",
"                              ",
"                              ",
"                              ",
"                              ",
"                              "};
